<svg width="49" height="49" viewBox="0 0 49 49" fill="none" xmlns="http://www.w3.org/2000/svg">
<mask id="mask0_9_700" style="mask-type:alpha" maskUnits="userSpaceOnUse" x="0" y="0" width="49" height="49">
<rect width="49" height="49" fill="#D9D9D9"/>
</mask>
<g mask="url(#mask0_9_700)">
<path d="M37.0485 37.2322C37.9523 37.2322 38.7169 36.9183 39.3424 36.2905C39.9681 35.6627 40.281 34.9003 40.281 34.0033C40.281 33.1067 39.9676 32.3482 39.3408 31.7279C38.714 31.1072 37.953 30.7969 37.0577 30.7969C36.1482 30.7969 35.3854 31.1101 34.7695 31.7365C34.1536 32.3627 33.8457 33.123 33.8457 34.0176C33.8457 34.9122 34.157 35.6717 34.7797 36.2961C35.4024 36.9202 36.1587 37.2322 37.0485 37.2322ZM37.0378 43.6675C38.0954 43.6675 39.0914 43.4169 40.0258 42.9157C40.9602 42.4145 41.7337 41.7307 42.3462 40.8643C41.5138 40.4138 40.6614 40.0637 39.789 39.8139C38.9168 39.5638 38.0064 39.4387 37.0577 39.4387C36.109 39.4387 35.1985 39.5638 34.326 39.8139C33.4535 40.0637 32.6011 40.4138 31.7688 40.8643C32.3551 41.7307 33.1154 42.4145 34.0498 42.9157C34.9846 43.4169 35.9806 43.6675 37.0378 43.6675ZM10.9908 40.8327C10.2272 40.8327 9.56516 40.5525 9.00472 39.992C8.44428 39.4316 8.16406 38.7696 8.16406 38.006V10.9927C8.16406 10.2291 8.44428 9.56711 9.00472 9.00667C9.56516 8.44623 10.2272 8.16602 10.9908 8.16602H38.004C38.7676 8.16602 39.4296 8.44623 39.9901 9.00667C40.5505 9.56711 40.8307 10.2291 40.8307 10.9927V24.5662C40.5636 24.4771 40.2973 24.3998 40.0319 24.3345C39.7662 24.2692 39.5089 24.1985 39.2602 24.1227V10.9927C39.2602 10.6786 39.1293 10.3908 38.8677 10.1291C38.606 9.86741 38.3181 9.73657 38.004 9.73657H10.9908C10.6767 9.73657 10.3888 9.86741 10.1271 10.1291C9.86545 10.3908 9.73461 10.6786 9.73461 10.9927V38.006C9.73461 38.3201 9.86545 38.6079 10.1271 38.8696C10.3888 39.1313 10.6767 39.2621 10.9908 39.2621H24.1324C24.19 39.5449 24.2453 39.82 24.2983 40.0875C24.3514 40.3553 24.4309 40.6037 24.5367 40.8327H10.9908ZM9.73461 39.2621V9.73657V24.1227V23.9573V39.2621ZM15.3099 33.2157H24.5091C24.619 32.9592 24.7264 32.7 24.8312 32.4384C24.936 32.1767 25.059 31.9123 25.2002 31.6452H15.3099V33.2157ZM15.3099 25.2844H31.1012C31.4731 25.1772 31.7821 25.0797 32.0281 24.9919C32.2741 24.9044 32.5385 24.7927 32.8213 24.6566V23.7143H15.3099V25.2844ZM15.3099 17.3535H33.6849V15.783H15.3099V17.3535ZM37.0511 45.1396C34.8713 45.1396 33.0161 44.3631 31.4855 42.81C29.9546 41.257 29.1891 39.4124 29.1891 37.2761C29.1891 35.0568 29.9544 33.1834 31.485 31.6559C33.0152 30.1281 34.8791 29.3641 37.0766 29.3641C39.2391 29.3641 41.088 30.1281 42.6233 31.6559C44.1583 33.1834 44.9258 35.0568 44.9258 37.2761C44.9258 39.4124 44.1583 41.257 42.6233 42.81C41.088 44.3631 39.2306 45.1396 37.0511 45.1396Z" fill="#1E6FFF"/>
</g>
</svg>
