<svg width="35" height="35" viewBox="0 0 35 35" fill="none" xmlns="http://www.w3.org/2000/svg">
<g clip-path="url(#clip0_9_706)">
<path d="M32.0833 2.91667V32.0833H2.91667V2.91667H32.0833ZM32.0833 0H2.91667C2.14312 0 1.40125 0.307291 0.854272 0.854272C0.307291 1.40125 0 2.14312 0 2.91667L0 32.0833C0 32.8569 0.307291 33.5987 0.854272 34.1457C1.40125 34.6927 2.14312 35 2.91667 35H32.0833C32.8569 35 33.5987 34.6927 34.1457 34.1457C34.6927 33.5987 35 32.8569 35 32.0833V2.91667C35 2.14312 34.6927 1.40125 34.1457 0.854272C33.5987 0.307291 32.8569 0 32.0833 0Z" fill="#1E6FFF"/>
<path d="M26.25 24.791H8.75V27.7077H26.25V24.791ZM18.9583 27.7077H16.0417V32.0827H18.9583V27.7077Z" fill="#1E6FFF"/>
<path fill-rule="evenodd" clip-rule="evenodd" d="M13.5973 10.3378L13.5171 10.208H2.91211V7.29134H13.5084C13.7646 6.84754 14.1332 6.47907 14.5772 6.22306C15.0211 5.96704 15.5246 5.83251 16.0371 5.83301H18.9538C19.4655 5.83328 19.9681 5.96817 20.4112 6.22415C20.8543 6.48013 21.2223 6.84818 21.4782 7.29134H33.5371V10.208H21.4738C21.0922 10.8606 20.4721 11.3395 19.7442 11.5438L17.4954 16.0413L15.2467 11.5438C14.5695 11.3539 13.9837 10.9255 13.5973 10.3378ZM17.4954 10.208H16.0313H18.9596H17.4954ZM18.9538 8.74968C18.9538 9.13645 18.8001 9.50738 18.5266 9.78087C18.2531 10.0544 17.8822 10.208 17.4954 10.208C17.1087 10.208 16.7377 10.0544 16.4642 9.78087C16.1908 9.50738 16.0371 9.13645 16.0371 8.74968C16.0371 8.3629 16.1908 7.99197 16.4642 7.71848C16.7377 7.44499 17.1087 7.29134 17.4954 7.29134C17.8822 7.29134 18.2531 7.44499 18.5266 7.71848C18.8001 7.99197 18.9538 8.3629 18.9538 8.74968Z" fill="#1E6FFF"/>
</g>
<defs>
<clipPath id="clip0_9_706">
<rect width="35" height="35" fill="white"/>
</clipPath>
</defs>
</svg>
