<svg width="25" height="25" viewBox="0 0 25 25" fill="none" xmlns="http://www.w3.org/2000/svg">
<mask id="mask0_163_761" style="mask-type:alpha" maskUnits="userSpaceOnUse" x="0" y="-1" width="25" height="26">
<rect y="-0.000488281" width="25" height="25" fill="#D9D9D9"/>
</mask>
<g mask="url(#mask0_163_761)">
<path d="M6.89115 15.3416H7.69219V13.1442H10.657V15.3416H11.4583V9.65674H10.657V12.3429H7.69219V9.65674H6.89115V15.3416ZM13.5417 15.3416H16.8669C17.2008 15.3416 17.4912 15.2181 17.7383 14.9711C17.9853 14.724 18.1089 14.4336 18.1089 14.0997V10.8987C18.1089 10.5648 17.9853 10.2744 17.7383 10.0273C17.4912 9.78026 17.2008 9.65674 16.8669 9.65674H13.5417V15.3416ZM14.343 14.5403V10.458H16.9872C17.0673 10.458 17.1407 10.4914 17.2076 10.558C17.2744 10.6249 17.3078 10.6983 17.3078 10.7784V14.22C17.3078 14.3001 17.2744 14.3735 17.2076 14.4403C17.1407 14.507 17.0673 14.5403 16.9872 14.5403H14.343ZM4.56719 19.7909C4.16701 19.7909 3.82656 19.6506 3.54583 19.37C3.26528 19.0893 3.125 18.7488 3.125 18.3487V6.64971C3.125 6.24953 3.26528 5.90908 3.54583 5.62835C3.82656 5.3478 4.16701 5.20752 4.56719 5.20752H20.4328C20.833 5.20752 21.1734 5.3478 21.4542 5.62835C21.7347 5.90908 21.875 6.24953 21.875 6.64971V18.3487C21.875 18.7488 21.7347 19.0893 21.4542 19.37C21.1734 19.6506 20.833 19.7909 20.4328 19.7909H4.56719ZM4.56719 18.9896H20.4328C20.5931 18.9896 20.7399 18.9228 20.8734 18.7893C21.0069 18.6558 21.0737 18.5089 21.0737 18.3487V6.64971C21.0737 6.48946 21.0069 6.34259 20.8734 6.20908C20.7399 6.07558 20.5931 6.00882 20.4328 6.00882H4.56719C4.40694 6.00882 4.26007 6.07558 4.12656 6.20908C3.99306 6.34259 3.9263 6.48946 3.9263 6.64971V18.3487C3.9263 18.5089 3.99306 18.6558 4.12656 18.7893C4.26007 18.9228 4.40694 18.9896 4.56719 18.9896Z" fill="#001331"/>
</g>
</svg>
