<svg width="17" height="20" viewBox="0 0 17 20" fill="none" xmlns="http://www.w3.org/2000/svg">
<mask id="path-1-inside-1_163_778" fill="white">
<path d="M15.8164 13.3154C15.8403 13.1025 15.8633 12.8891 15.8755 12.6924C15.958 11.8057 16 10.8999 16 9.99951C16 9.41261 15.9795 8.81491 15.9487 8.22701C15.948 8.21301 15.9412 8.20071 15.9399 8.18681C15.9394 8.17791 15.9387 8.16841 15.9382 8.15951C15.9375 8.14051 15.9419 8.11601 15.9404 8.09861C15.9364 8.02991 15.9275 7.95741 15.9203 7.88611C15.9124 7.78431 15.9038 7.67801 15.8935 7.55561L15.8356 7.56051C15.6701 7.13051 15.238 6.84931 14.7675 6.92131C14.3205 6.99011 14.005 7.34921 13.9455 7.77491L13.9052 7.78061C13.9098 7.83531 13.9125 7.88701 13.9169 7.94081C13.9063 7.94841 13.9029 7.95481 13.8914 7.96271C13.858 7.98521 13.8097 8.00941 13.7682 8.03281C13.7063 8.06781 13.6422 8.10291 13.5625 8.13951C13.5059 8.16541 13.4377 8.19191 13.3722 8.21821C13.283 8.25411 13.1884 8.29001 13.0829 8.32601C13.0037 8.35301 12.9167 8.37981 12.8284 8.40651C12.7116 8.44181 12.5863 8.47661 12.4539 8.51071C12.3535 8.53661 12.2492 8.56201 12.1399 8.58691C11.9935 8.62021 11.8353 8.65151 11.6732 8.68241C11.5545 8.70491 11.4363 8.72741 11.3094 8.74831C11.1298 8.77771 10.935 8.80341 10.739 8.82861C10.6067 8.84571 10.4787 8.86391 10.339 8.87881C10.1112 8.90301 9.8649 8.92071 9.6177 8.93811C9.4892 8.94711 9.369 8.95931 9.2354 8.96631C8.8444 8.98691 8.4344 8.99951 8 8.99951C7.5643 8.99951 7.153 8.98691 6.761 8.96641C6.6293 8.95961 6.5113 8.94751 6.3847 8.93861C6.1343 8.92101 5.8846 8.90311 5.6541 8.87871C5.5163 8.86411 5.3909 8.84591 5.2604 8.82911C5.0618 8.80351 4.8642 8.77781 4.6825 8.74811C4.5573 8.72761 4.4415 8.70541 4.3244 8.68321C4.1597 8.65201 3.9985 8.62041 3.8501 8.58671C3.7437 8.56251 3.6433 8.53781 3.5454 8.51271C3.4092 8.47771 3.2796 8.44241 3.1601 8.40631C3.0758 8.38081 2.9937 8.35551 2.9179 8.32981C2.8085 8.29281 2.7097 8.25591 2.618 8.21921C2.5565 8.19451 2.4932 8.16991 2.4398 8.14571C2.3573 8.10831 2.2898 8.07231 2.2268 8.03681C2.1886 8.01531 2.1446 7.99301 2.1136 7.97231C2.097 7.96141 2.0914 7.95231 2.077 7.94161C2.0827 7.87241 2.0896 7.79871 2.0971 7.71631C2.1669 6.80221 2.2841 5.89401 2.4467 5.00001C2.4666 5.00981 2.4909 5.01731 2.5111 5.02701C3.8881 5.68771 5.9471 5.99951 8 5.99951C8.1279 5.99951 8.245 5.98881 8.3703 5.98631C8.7381 5.98171 9.1024 5.97061 9.4561 5.94771C10.0074 5.91111 10.4244 5.43451 10.3882 4.88371C10.3511 4.33241 9.8843 3.91401 9.3242 3.95161C8.8955 3.98051 8.457 3.99951 8 3.99951C7.6299 3.99951 7.2811 3.98751 6.9491 3.96781C6.8369 3.96111 6.7368 3.94941 6.629 3.94081C6.4185 3.92401 6.208 3.90721 6.0144 3.88391C5.895 3.86951 5.7869 3.85141 5.674 3.83491C5.51 3.81091 5.3456 3.78711 5.1954 3.75931C5.0856 3.73901 4.9852 3.71681 4.8828 3.69481C4.7487 3.66601 4.6158 3.63721 4.4944 3.60621C4.3997 3.58201 4.3116 3.55711 4.2247 3.53191C4.1155 3.50031 4.0094 3.46851 3.9127 3.43601C3.8361 3.41021 3.7636 3.38461 3.6949 3.35861C3.608 3.32581 3.5268 3.29321 3.4526 3.26071C3.395 3.23551 3.3386 3.21041 3.2888 3.18581C3.2239 3.15371 3.1678 3.12271 3.1162 3.09221C3.0781 3.06971 3.0383 3.04701 3.0076 3.02571C2.9922 3.01501 2.9845 3.00601 2.971 2.99571C3.4803 2.62081 5.1978 1.99951 8 1.99951C8.457 1.99951 8.8955 2.01851 9.3242 2.04741C9.8847 2.07771 10.3511 1.66651 10.3882 1.11531C10.4243 0.564512 10.0073 0.0880117 9.4561 0.0513117C8.9844 0.0205117 8.5029 -0.000488281 8 -0.000488281C4.5672 -0.000488281 1.1147 0.868312 0.8823 2.79451C0.4902 4.34031 0.2273 5.94451 0.0991001 7.60351C0.0796001 7.81791 0.0609998 8.02441 0.0507998 8.23051L0.0510998 8.23401C0.0205998 8.81961 0 9.41491 0 9.99951C0 10.8999 0.0420001 11.8057 0.1226 12.6758C0.1368 12.8892 0.1597 13.1026 0.1836 13.3154L0.2149 13.6079C0.2153 13.6121 0.2176 13.6159 0.2181 13.6201C0.2184 13.6229 0.2174 13.6256 0.2178 13.6284C0.3579 14.7949 0.5757 15.978 0.8662 17.1474C1.0327 19.1162 4.5317 19.9995 8 19.9995C11.4683 19.9995 14.9673 19.1162 15.1338 17.1474C15.4243 15.978 15.6421 14.7949 15.7822 13.6284C15.7826 13.6256 15.7816 13.6229 15.7819 13.6201C15.7824 13.6159 15.7847 13.6121 15.7851 13.6079L15.8164 13.3154ZM13.7266 13.0544C13.6417 13.1002 13.55 13.1463 13.4392 13.1928C13.3874 13.2145 13.3247 13.2361 13.2673 13.2577C13.1605 13.2981 13.0486 13.3384 12.9231 13.378C12.8481 13.4016 12.7653 13.4246 12.6838 13.4477C12.5546 13.4843 12.4188 13.5201 12.2737 13.5549C12.1784 13.5777 12.0788 13.5998 11.9768 13.6215C11.824 13.654 11.6619 13.6847 11.4944 13.7143C11.3816 13.7342 11.2684 13.7539 11.1491 13.7723C10.9682 13.8001 10.7753 13.8242 10.5799 13.8477C10.4565 13.8625 10.3363 13.8783 10.2073 13.8912C9.9848 13.9135 9.7478 13.9299 9.5091 13.9456C9.3901 13.9535 9.2776 13.9639 9.1547 13.97C8.7859 13.9882 8.4025 13.9995 8 13.9995C7.5975 13.9995 7.2141 13.9882 6.8454 13.9701C6.7224 13.9641 6.6098 13.9536 6.4908 13.9457C6.2522 13.93 6.0153 13.9136 5.793 13.8914C5.6638 13.8785 5.5435 13.8626 5.42 13.8478C5.2246 13.8243 5.0319 13.8001 4.851 13.7724C4.7317 13.754 4.6185 13.7343 4.5057 13.7144C4.3382 13.6848 4.1761 13.6542 4.0233 13.6216C3.9212 13.5999 3.8217 13.5778 3.7264 13.555C3.5814 13.5203 3.4456 13.4845 3.3165 13.4479C3.2348 13.4248 3.1519 13.4018 3.0767 13.3781C2.9514 13.3386 2.8398 13.2984 2.7331 13.258C2.6756 13.2363 2.6127 13.2147 2.5608 13.1929C2.45 13.1464 2.3583 13.1002 2.2734 13.0545C2.2445 13.0389 2.207 13.0229 2.1812 13.0076C2.172 13.002 2.1688 12.9971 2.16 12.9916C2.1436 12.8442 2.1283 12.7048 2.1201 12.6093C2.1201 12.5785 2.1186 12.5375 2.1157 12.5068C2.0425 11.7183 2.0034 10.9126 2 10.1108C2.0256 10.1208 2.0548 10.1287 2.0807 10.1385C2.235 10.1967 2.3952 10.2515 2.5609 10.3032C2.5974 10.3146 2.6317 10.3272 2.6687 10.3383C2.8732 10.3995 3.0857 10.4557 3.3037 10.5076C3.3593 10.5208 3.4167 10.5324 3.4731 10.5451C3.6398 10.5826 3.8088 10.6177 3.9812 10.6501C4.0559 10.6641 4.1307 10.6777 4.2062 10.6908C4.377 10.7205 4.5496 10.7476 4.724 10.7726C4.7877 10.7818 4.8505 10.7918 4.9146 10.8004C5.1496 10.8318 5.3864 10.8597 5.6244 10.8832C5.6702 10.8877 5.7159 10.8909 5.7617 10.8952C5.9581 10.9134 6.1543 10.9293 6.3504 10.9425C6.4273 10.9477 6.5034 10.952 6.58 10.9565C6.7518 10.9664 6.9221 10.9744 7.092 10.9807C7.1644 10.9834 7.2365 10.9866 7.3084 10.9886C7.542 10.9953 7.7736 10.9995 8 10.9995C8.2264 10.9995 8.458 10.9953 8.6917 10.9887C8.7636 10.9867 8.8357 10.9835 8.9081 10.9808C9.078 10.9746 9.2483 10.9666 9.4201 10.9566C9.4968 10.9521 9.5728 10.9478 9.6497 10.9426C9.8459 10.9294 10.0421 10.9135 10.2384 10.8953C10.2842 10.891 10.33 10.8879 10.3757 10.8833C10.6137 10.8597 10.8504 10.8318 11.0855 10.8005C11.1496 10.7919 11.2123 10.7818 11.2761 10.7727C11.4505 10.7477 11.623 10.7205 11.7939 10.6909C11.8695 10.6778 11.9442 10.6642 12.0189 10.6502C12.1913 10.6178 12.3602 10.5826 12.527 10.5452C12.5833 10.5326 12.6408 10.521 12.6964 10.5077C12.9144 10.4558 13.1269 10.3996 13.3314 10.3384C13.3684 10.3273 13.4028 10.3147 13.4392 10.3033C13.6049 10.2516 13.7651 10.1968 13.9194 10.1386C13.9453 10.1288 13.9746 10.1209 14.0001 10.1109C13.9967 10.9131 13.9576 11.7198 13.8824 12.543C13.8723 12.6926 13.8563 12.8421 13.8399 12.9917C13.8311 12.9971 13.828 13.002 13.8188 13.0075C13.793 13.0229 13.7554 13.0389 13.7266 13.0544ZM13.1704 16.7554C13.1582 16.8033 13.1499 16.8521 13.145 16.9014C12.8477 17.2505 11.0776 17.9995 8 17.9995C4.9224 17.9995 3.1523 17.2505 2.855 16.9014C2.8501 16.8521 2.8418 16.8033 2.8296 16.7554C2.707 16.2695 2.5981 15.7808 2.5029 15.292C2.5314 15.301 2.5655 15.3061 2.5943 15.3149C2.9612 15.4264 3.3487 15.5242 3.7556 15.6062C3.8399 15.6232 3.9277 15.6346 4.0131 15.6504C4.3482 15.7122 4.6878 15.7661 5.0345 15.8101C5.1768 15.8282 5.3161 15.8433 5.459 15.8586C5.7683 15.8917 6.0739 15.9183 6.3809 15.9388C6.5118 15.9475 6.64 15.9578 6.7695 15.9644C7.1913 15.9858 7.6063 15.9995 8 15.9995C8.3937 15.9995 8.8087 15.9858 9.2304 15.9643C9.3599 15.9577 9.4881 15.9474 9.619 15.9387C9.926 15.9182 10.2316 15.8916 10.5409 15.8585C10.6838 15.8432 10.8231 15.8282 10.9654 15.81C11.3121 15.7659 11.6517 15.7121 11.9868 15.6503C12.0722 15.6346 12.16 15.6231 12.2443 15.6061C12.6512 15.5241 13.0387 15.4264 13.4056 15.3148C13.4344 15.306 13.4685 15.3009 13.497 15.2919C13.4019 15.7808 13.293 16.2695 13.1704 16.7554Z"/>
</mask>
<path d="M15.8164 13.3154C15.8403 13.1025 15.8633 12.8891 15.8755 12.6924C15.958 11.8057 16 10.8999 16 9.99951C16 9.41261 15.9795 8.81491 15.9487 8.22701C15.948 8.21301 15.9412 8.20071 15.9399 8.18681C15.9394 8.17791 15.9387 8.16841 15.9382 8.15951C15.9375 8.14051 15.9419 8.11601 15.9404 8.09861C15.9364 8.02991 15.9275 7.95741 15.9203 7.88611C15.9124 7.78431 15.9038 7.67801 15.8935 7.55561L15.8356 7.56051C15.6701 7.13051 15.238 6.84931 14.7675 6.92131C14.3205 6.99011 14.005 7.34921 13.9455 7.77491L13.9052 7.78061C13.9098 7.83531 13.9125 7.88701 13.9169 7.94081C13.9063 7.94841 13.9029 7.95481 13.8914 7.96271C13.858 7.98521 13.8097 8.00941 13.7682 8.03281C13.7063 8.06781 13.6422 8.10291 13.5625 8.13951C13.5059 8.16541 13.4377 8.19191 13.3722 8.21821C13.283 8.25411 13.1884 8.29001 13.0829 8.32601C13.0037 8.35301 12.9167 8.37981 12.8284 8.40651C12.7116 8.44181 12.5863 8.47661 12.4539 8.51071C12.3535 8.53661 12.2492 8.56201 12.1399 8.58691C11.9935 8.62021 11.8353 8.65151 11.6732 8.68241C11.5545 8.70491 11.4363 8.72741 11.3094 8.74831C11.1298 8.77771 10.935 8.80341 10.739 8.82861C10.6067 8.84571 10.4787 8.86391 10.339 8.87881C10.1112 8.90301 9.8649 8.92071 9.6177 8.93811C9.4892 8.94711 9.369 8.95931 9.2354 8.96631C8.8444 8.98691 8.4344 8.99951 8 8.99951C7.5643 8.99951 7.153 8.98691 6.761 8.96641C6.6293 8.95961 6.5113 8.94751 6.3847 8.93861C6.1343 8.92101 5.8846 8.90311 5.6541 8.87871C5.5163 8.86411 5.3909 8.84591 5.2604 8.82911C5.0618 8.80351 4.8642 8.77781 4.6825 8.74811C4.5573 8.72761 4.4415 8.70541 4.3244 8.68321C4.1597 8.65201 3.9985 8.62041 3.8501 8.58671C3.7437 8.56251 3.6433 8.53781 3.5454 8.51271C3.4092 8.47771 3.2796 8.44241 3.1601 8.40631C3.0758 8.38081 2.9937 8.35551 2.9179 8.32981C2.8085 8.29281 2.7097 8.25591 2.618 8.21921C2.5565 8.19451 2.4932 8.16991 2.4398 8.14571C2.3573 8.10831 2.2898 8.07231 2.2268 8.03681C2.1886 8.01531 2.1446 7.99301 2.1136 7.97231C2.097 7.96141 2.0914 7.95231 2.077 7.94161C2.0827 7.87241 2.0896 7.79871 2.0971 7.71631C2.1669 6.80221 2.2841 5.89401 2.4467 5.00001C2.4666 5.00981 2.4909 5.01731 2.5111 5.02701C3.8881 5.68771 5.9471 5.99951 8 5.99951C8.1279 5.99951 8.245 5.98881 8.3703 5.98631C8.7381 5.98171 9.1024 5.97061 9.4561 5.94771C10.0074 5.91111 10.4244 5.43451 10.3882 4.88371C10.3511 4.33241 9.8843 3.91401 9.3242 3.95161C8.8955 3.98051 8.457 3.99951 8 3.99951C7.6299 3.99951 7.2811 3.98751 6.9491 3.96781C6.8369 3.96111 6.7368 3.94941 6.629 3.94081C6.4185 3.92401 6.208 3.90721 6.0144 3.88391C5.895 3.86951 5.7869 3.85141 5.674 3.83491C5.51 3.81091 5.3456 3.78711 5.1954 3.75931C5.0856 3.73901 4.9852 3.71681 4.8828 3.69481C4.7487 3.66601 4.6158 3.63721 4.4944 3.60621C4.3997 3.58201 4.3116 3.55711 4.2247 3.53191C4.1155 3.50031 4.0094 3.46851 3.9127 3.43601C3.8361 3.41021 3.7636 3.38461 3.6949 3.35861C3.608 3.32581 3.5268 3.29321 3.4526 3.26071C3.395 3.23551 3.3386 3.21041 3.2888 3.18581C3.2239 3.15371 3.1678 3.12271 3.1162 3.09221C3.0781 3.06971 3.0383 3.04701 3.0076 3.02571C2.9922 3.01501 2.9845 3.00601 2.971 2.99571C3.4803 2.62081 5.1978 1.99951 8 1.99951C8.457 1.99951 8.8955 2.01851 9.3242 2.04741C9.8847 2.07771 10.3511 1.66651 10.3882 1.11531C10.4243 0.564512 10.0073 0.0880117 9.4561 0.0513117C8.9844 0.0205117 8.5029 -0.000488281 8 -0.000488281C4.5672 -0.000488281 1.1147 0.868312 0.8823 2.79451C0.4902 4.34031 0.2273 5.94451 0.0991001 7.60351C0.0796001 7.81791 0.0609998 8.02441 0.0507998 8.23051L0.0510998 8.23401C0.0205998 8.81961 0 9.41491 0 9.99951C0 10.8999 0.0420001 11.8057 0.1226 12.6758C0.1368 12.8892 0.1597 13.1026 0.1836 13.3154L0.2149 13.6079C0.2153 13.6121 0.2176 13.6159 0.2181 13.6201C0.2184 13.6229 0.2174 13.6256 0.2178 13.6284C0.3579 14.7949 0.5757 15.978 0.8662 17.1474C1.0327 19.1162 4.5317 19.9995 8 19.9995C11.4683 19.9995 14.9673 19.1162 15.1338 17.1474C15.4243 15.978 15.6421 14.7949 15.7822 13.6284C15.7826 13.6256 15.7816 13.6229 15.7819 13.6201C15.7824 13.6159 15.7847 13.6121 15.7851 13.6079L15.8164 13.3154ZM13.7266 13.0544C13.6417 13.1002 13.55 13.1463 13.4392 13.1928C13.3874 13.2145 13.3247 13.2361 13.2673 13.2577C13.1605 13.2981 13.0486 13.3384 12.9231 13.378C12.8481 13.4016 12.7653 13.4246 12.6838 13.4477C12.5546 13.4843 12.4188 13.5201 12.2737 13.5549C12.1784 13.5777 12.0788 13.5998 11.9768 13.6215C11.824 13.654 11.6619 13.6847 11.4944 13.7143C11.3816 13.7342 11.2684 13.7539 11.1491 13.7723C10.9682 13.8001 10.7753 13.8242 10.5799 13.8477C10.4565 13.8625 10.3363 13.8783 10.2073 13.8912C9.9848 13.9135 9.7478 13.9299 9.5091 13.9456C9.3901 13.9535 9.2776 13.9639 9.1547 13.97C8.7859 13.9882 8.4025 13.9995 8 13.9995C7.5975 13.9995 7.2141 13.9882 6.8454 13.9701C6.7224 13.9641 6.6098 13.9536 6.4908 13.9457C6.2522 13.93 6.0153 13.9136 5.793 13.8914C5.6638 13.8785 5.5435 13.8626 5.42 13.8478C5.2246 13.8243 5.0319 13.8001 4.851 13.7724C4.7317 13.754 4.6185 13.7343 4.5057 13.7144C4.3382 13.6848 4.1761 13.6542 4.0233 13.6216C3.9212 13.5999 3.8217 13.5778 3.7264 13.555C3.5814 13.5203 3.4456 13.4845 3.3165 13.4479C3.2348 13.4248 3.1519 13.4018 3.0767 13.3781C2.9514 13.3386 2.8398 13.2984 2.7331 13.258C2.6756 13.2363 2.6127 13.2147 2.5608 13.1929C2.45 13.1464 2.3583 13.1002 2.2734 13.0545C2.2445 13.0389 2.207 13.0229 2.1812 13.0076C2.172 13.002 2.1688 12.9971 2.16 12.9916C2.1436 12.8442 2.1283 12.7048 2.1201 12.6093C2.1201 12.5785 2.1186 12.5375 2.1157 12.5068C2.0425 11.7183 2.0034 10.9126 2 10.1108C2.0256 10.1208 2.0548 10.1287 2.0807 10.1385C2.235 10.1967 2.3952 10.2515 2.5609 10.3032C2.5974 10.3146 2.6317 10.3272 2.6687 10.3383C2.8732 10.3995 3.0857 10.4557 3.3037 10.5076C3.3593 10.5208 3.4167 10.5324 3.4731 10.5451C3.6398 10.5826 3.8088 10.6177 3.9812 10.6501C4.0559 10.6641 4.1307 10.6777 4.2062 10.6908C4.377 10.7205 4.5496 10.7476 4.724 10.7726C4.7877 10.7818 4.8505 10.7918 4.9146 10.8004C5.1496 10.8318 5.3864 10.8597 5.6244 10.8832C5.6702 10.8877 5.7159 10.8909 5.7617 10.8952C5.9581 10.9134 6.1543 10.9293 6.3504 10.9425C6.4273 10.9477 6.5034 10.952 6.58 10.9565C6.7518 10.9664 6.9221 10.9744 7.092 10.9807C7.1644 10.9834 7.2365 10.9866 7.3084 10.9886C7.542 10.9953 7.7736 10.9995 8 10.9995C8.2264 10.9995 8.458 10.9953 8.6917 10.9887C8.7636 10.9867 8.8357 10.9835 8.9081 10.9808C9.078 10.9746 9.2483 10.9666 9.4201 10.9566C9.4968 10.9521 9.5728 10.9478 9.6497 10.9426C9.8459 10.9294 10.0421 10.9135 10.2384 10.8953C10.2842 10.891 10.33 10.8879 10.3757 10.8833C10.6137 10.8597 10.8504 10.8318 11.0855 10.8005C11.1496 10.7919 11.2123 10.7818 11.2761 10.7727C11.4505 10.7477 11.623 10.7205 11.7939 10.6909C11.8695 10.6778 11.9442 10.6642 12.0189 10.6502C12.1913 10.6178 12.3602 10.5826 12.527 10.5452C12.5833 10.5326 12.6408 10.521 12.6964 10.5077C12.9144 10.4558 13.1269 10.3996 13.3314 10.3384C13.3684 10.3273 13.4028 10.3147 13.4392 10.3033C13.6049 10.2516 13.7651 10.1968 13.9194 10.1386C13.9453 10.1288 13.9746 10.1209 14.0001 10.1109C13.9967 10.9131 13.9576 11.7198 13.8824 12.543C13.8723 12.6926 13.8563 12.8421 13.8399 12.9917C13.8311 12.9971 13.828 13.002 13.8188 13.0075C13.793 13.0229 13.7554 13.0389 13.7266 13.0544ZM13.1704 16.7554C13.1582 16.8033 13.1499 16.8521 13.145 16.9014C12.8477 17.2505 11.0776 17.9995 8 17.9995C4.9224 17.9995 3.1523 17.2505 2.855 16.9014C2.8501 16.8521 2.8418 16.8033 2.8296 16.7554C2.707 16.2695 2.5981 15.7808 2.5029 15.292C2.5314 15.301 2.5655 15.3061 2.5943 15.3149C2.9612 15.4264 3.3487 15.5242 3.7556 15.6062C3.8399 15.6232 3.9277 15.6346 4.0131 15.6504C4.3482 15.7122 4.6878 15.7661 5.0345 15.8101C5.1768 15.8282 5.3161 15.8433 5.459 15.8586C5.7683 15.8917 6.0739 15.9183 6.3809 15.9388C6.5118 15.9475 6.64 15.9578 6.7695 15.9644C7.1913 15.9858 7.6063 15.9995 8 15.9995C8.3937 15.9995 8.8087 15.9858 9.2304 15.9643C9.3599 15.9577 9.4881 15.9474 9.619 15.9387C9.926 15.9182 10.2316 15.8916 10.5409 15.8585C10.6838 15.8432 10.8231 15.8282 10.9654 15.81C11.3121 15.7659 11.6517 15.7121 11.9868 15.6503C12.0722 15.6346 12.16 15.6231 12.2443 15.6061C12.6512 15.5241 13.0387 15.4264 13.4056 15.3148C13.4344 15.306 13.4685 15.3009 13.497 15.2919C13.4019 15.7808 13.293 16.2695 13.1704 16.7554Z" fill="#001331" stroke="#DDE9FC" mask="url(#path-1-inside-1_163_778)"/>
<path d="M16.75 2.99951C16.75 4.51829 15.5188 5.74951 14 5.74951C12.4812 5.74951 11.25 4.51829 11.25 2.99951C11.25 1.48073 12.4812 0.249512 14 0.249512C15.5188 0.249512 16.75 1.48073 16.75 2.99951Z" fill="#001331" stroke="#DDE9FC" stroke-width="0.5"/>
</svg>
