<svg width="40" height="39" viewBox="0 0 40 39" fill="none" xmlns="http://www.w3.org/2000/svg">
<path d="M2.60968 39V35.8273H10.0117L3.6475 14.5386C2.5121 14.0269 1.62044 13.3268 0.972505 12.4382C0.324168 11.5495 0 10.4135 0 9.03015C0 7.3835 0.579189 5.98099 1.73757 4.82261C2.89594 3.66423 4.29866 3.08504 5.94571 3.08504C7.50244 3.08504 8.80335 3.55094 9.84843 4.48272C10.8939 5.4149 11.5717 6.62066 11.8817 8.09998H21.2233V3.92691C21.2233 3.66 21.3197 3.43824 21.5124 3.26164C21.7052 3.08464 21.9191 2.99614 22.1541 2.99614C22.4735 2.99614 22.7222 3.12113 22.9004 3.37111C23.0791 3.62069 23.1373 3.90514 23.0752 4.22447V4.87583L27.7043 0.567902C27.993 0.276392 28.3407 0.0957596 28.7476 0.0260069C29.1548 -0.0437457 29.5721 0.0268133 29.9995 0.237684L39.2044 4.60126C39.4431 4.70972 39.633 4.88349 39.7741 5.12259C39.9152 5.36128 39.909 5.61953 39.7554 5.89733C39.63 6.1469 39.4477 6.29649 39.2086 6.34608C38.97 6.39567 38.7266 6.35072 38.4787 6.21121L28.9647 1.67528L23.0843 7.33673V10.6214L28.9647 16.2925L38.4787 11.7426C38.7657 11.6031 39.0113 11.5604 39.2153 11.6144C39.4189 11.6689 39.606 11.8201 39.7765 12.068C39.885 12.3474 39.8765 12.6111 39.7511 12.8591C39.6253 13.107 39.4385 13.301 39.1905 13.4409L30.1235 17.6557C29.6828 17.8758 29.2546 17.9682 28.8389 17.9327C28.4236 17.8968 28.0389 17.7198 27.6849 17.4017L23.0752 13.199V13.8503C23.1373 14.2596 23.0791 14.5666 22.9004 14.7714C22.7222 14.9759 22.4735 15.0781 22.1541 15.0781C21.9191 15.0781 21.7052 14.9817 21.5124 14.789C21.3197 14.5967 21.2233 14.383 21.2233 14.1479V9.96092H11.8073C11.7453 10.5685 11.5445 11.1864 11.205 11.8146C10.8651 12.4428 10.4984 12.9337 10.1049 13.2873L21.9908 35.8273H31.6397V39H2.60968ZM5.92333 13.1149C7.06235 13.1149 8.03163 12.7153 8.83117 11.9162C9.6303 11.1167 10.0299 10.1474 10.0299 9.00838C10.0299 7.86935 9.6303 6.90753 8.83117 6.12291C8.03163 5.33789 7.06235 4.94538 5.92333 4.94538C4.78431 4.94538 3.82249 5.33789 3.03787 6.12291C2.25325 6.90753 1.86094 7.86935 1.86094 9.00838C1.86094 10.1474 2.25325 11.1167 3.03787 11.9162C3.82249 12.7153 4.78431 13.1149 5.92333 13.1149ZM12.0958 35.8273H19.8928L8.46224 14.1431C8.18646 14.3168 7.76774 14.4751 7.20609 14.6178C6.64485 14.7606 6.14408 14.821 5.70379 14.7993L12.0958 35.8273Z" fill="#1E6FFF"/>
</svg>
