<svg width="20" height="14" viewBox="0 0 20 14" fill="none" xmlns="http://www.w3.org/2000/svg">
<path d="M12.6238 13.9995C10.6673 13.9995 9.01008 13.3206 7.65225 11.9628C6.29442 10.6049 5.6155 8.94776 5.6155 6.99126C5.6155 5.04926 6.29442 3.39851 7.65225 2.03901C9.01008 0.679345 10.6673 -0.000488281 12.6238 -0.000488281C14.5656 -0.000488281 16.2163 0.679345 17.576 2.03901C18.9357 3.39851 19.6155 5.04926 19.6155 6.99126C19.6155 8.94776 18.9357 10.6049 17.576 11.9628C16.2163 13.3206 14.5656 13.9995 12.6238 13.9995ZM12.6155 12.9995C14.2822 12.9995 15.6988 12.4162 16.8655 11.2495C18.0322 10.0828 18.6155 8.66618 18.6155 6.99951C18.6155 5.33285 18.0322 3.91618 16.8655 2.74951C15.6988 1.58284 14.2822 0.999512 12.6155 0.999512C10.9488 0.999512 9.53217 1.58284 8.3655 2.74951C7.19883 3.91618 6.6155 5.33285 6.6155 6.99951C6.6155 8.66618 7.19883 10.0828 8.3655 11.2495C9.53217 12.4162 10.9488 12.9995 12.6155 12.9995ZM15.0828 10.2053L15.7962 9.49176L13.1155 6.81101V3.30726H12.1155V7.21301L15.0828 10.2053ZM1 3.49951V2.49951H4.6155V3.49951H1ZM0 7.49951V6.49951H4.6155V7.49951H0ZM1 11.4995V10.4995H4.6155V11.4995H1Z" fill="#001331"/>
</svg>
