<svg width="45" height="45" viewBox="0 0 45 45" fill="none" xmlns="http://www.w3.org/2000/svg">
<mask id="mask0_9_691" style="mask-type:alpha" maskUnits="userSpaceOnUse" x="0" y="0" width="45" height="45">
<rect width="45" height="45" fill="#D9D9D9"/>
</mask>
<g mask="url(#mask0_9_691)">
<path d="M15.7216 33.6916C15.9498 33.7107 16.1724 33.725 16.3896 33.7347C16.6065 33.7444 16.8405 33.7493 17.0918 33.7493C17.3562 33.7493 17.6024 33.7444 17.8305 33.7347C18.059 33.725 18.2934 33.7107 18.5337 33.6916V36.7061C18.5337 36.8743 18.5879 37.0124 18.6963 37.1205C18.8045 37.2286 18.9426 37.2827 19.1107 37.2827H36.7071C36.8752 37.2827 37.0134 37.2286 37.1215 37.1205C37.2296 37.0124 37.2837 36.8743 37.2837 36.7061V19.1097C37.2837 18.9416 37.2296 18.8035 37.1215 18.6953C37.0134 18.5869 36.8752 18.5327 36.7071 18.5327H33.6926C33.7116 18.2924 33.726 18.058 33.7357 17.8296C33.7454 17.6014 33.7502 17.3552 33.7502 17.0908C33.7502 16.8396 33.7454 16.6055 33.7357 16.3886C33.726 16.1714 33.7116 15.9488 33.6926 15.7207H36.7071C37.639 15.7207 38.4368 16.0525 39.1005 16.7163C39.7643 17.38 40.0962 18.1779 40.0962 19.1097V36.7061C40.0962 37.638 39.7643 38.4358 39.1005 39.0996C38.4368 39.7633 37.639 40.0952 36.7071 40.0952H19.1107C18.1788 40.0952 17.381 39.7633 16.7173 39.0996C16.0535 38.4358 15.7216 37.638 15.7216 36.7061V33.6916ZM17.0951 29.2779C13.701 29.2779 10.8207 28.0958 8.45414 25.7318C6.08758 23.3674 4.9043 20.4882 4.9043 17.0941C4.9043 13.7 6.08633 10.8197 8.45039 8.45316C10.8148 6.0866 13.694 4.90332 17.088 4.90332C20.4821 4.90332 23.3624 6.08535 25.729 8.44941C28.0955 10.8138 29.2788 13.693 29.2788 17.0871C29.2788 20.4811 28.0968 23.3614 25.7327 25.728C23.3684 28.0946 20.4891 29.2779 17.0951 29.2779ZM17.0918 26.4658C19.6855 26.4658 21.8965 25.5518 23.7246 23.7236C25.5527 21.8955 26.4668 19.6846 26.4668 17.0908C26.4668 14.4971 25.5527 12.2861 23.7246 10.458C21.8965 8.62988 19.6855 7.71582 17.0918 7.71582C14.498 7.71582 12.2871 8.62988 10.459 10.458C8.63086 12.2861 7.7168 14.4971 7.7168 17.0908C7.7168 19.6846 8.63086 21.8955 10.459 23.7236C12.2871 25.5518 14.498 26.4658 17.0918 26.4658Z" fill="#1E6FFF"/>
</g>
</svg>
