<svg width="25" height="25" viewBox="0 0 25 25" fill="none" xmlns="http://www.w3.org/2000/svg">
<mask id="mask0_163_789" style="mask-type:alpha" maskUnits="userSpaceOnUse" x="0" y="-1" width="25" height="26">
<rect y="-0.000488281" width="25" height="25" fill="#D9D9D9"/>
</mask>
<g mask="url(#mask0_163_789)">
<path d="M4.56719 17.7082C4.16701 17.7082 3.82656 17.5679 3.54583 17.2873C3.26528 17.0066 3.125 16.6662 3.125 16.266V8.73369C3.125 8.33439 3.26528 7.99419 3.54583 7.71312C3.82656 7.43204 4.16701 7.2915 4.56719 7.2915H20.4328C20.833 7.2915 21.1734 7.43204 21.4542 7.71312C21.7347 7.99419 21.875 8.33439 21.875 8.73369V16.266C21.875 16.6662 21.7347 17.0066 21.4542 17.2873C21.1734 17.5679 20.833 17.7082 20.4328 17.7082H4.56719ZM4.56719 16.9069H20.4328C20.5931 16.9069 20.7399 16.8401 20.8734 16.7066C21.0069 16.5731 21.0737 16.4262 21.0737 16.266V8.73369C21.0737 8.57345 21.0069 8.42657 20.8734 8.29307C20.7399 8.15956 20.5931 8.09281 20.4328 8.09281H17.3078V11.6985H16.5065V8.09281H12.9005V11.6985H12.0995V8.09281H8.49349V11.6985H7.69219V8.09281H4.56719C4.40694 8.09281 4.26007 8.15956 4.12656 8.29307C3.99306 8.42657 3.9263 8.57345 3.9263 8.73369V16.266C3.9263 16.4262 3.99306 16.5731 4.12656 16.7066C4.26007 16.8401 4.40694 16.9069 4.56719 16.9069Z" fill="#001331"/>
</g>
</svg>
