<svg width="26" height="26" viewBox="0 0 26 26" fill="none" xmlns="http://www.w3.org/2000/svg">
<mask id="mask0_163_767" style="mask-type:alpha" maskUnits="userSpaceOnUse" x="0" y="-1" width="26" height="27">
<rect y="-0.000488281" width="26" height="26" fill="#D9D9D9"/>
</mask>
<g mask="url(#mask0_163_767)">
<path d="M12.887 18.7775L22.1828 9.50875C22.2663 9.41143 22.308 9.29335 22.308 9.1545C22.308 9.01565 22.2663 8.89757 22.1828 8.80025L21.1141 7.75863C21.017 7.66149 20.899 7.61292 20.7601 7.61292C20.6211 7.61292 20.503 7.66149 20.4059 7.75863L11.1372 17.0274L12.887 18.7775ZM6.11619 19.8692C4.80517 19.7746 3.79794 19.4436 3.0945 18.8763C2.39087 18.309 2.03906 17.54 2.03906 16.5691C2.03906 15.5968 2.46824 14.8024 3.3266 14.1858C4.18497 13.5692 5.3732 13.1887 6.89131 13.0442C7.8107 12.9581 8.49573 12.7719 8.9464 12.4857C9.39706 12.1996 9.6224 11.8114 9.6224 11.3212C9.6224 10.6865 9.36059 10.2015 8.83698 9.86598C8.31337 9.53051 7.44462 9.28567 6.23075 9.13148L6.32473 8.31898C7.6677 8.49538 8.69199 8.83781 9.3976 9.34625C10.103 9.85451 10.4557 10.5128 10.4557 11.3212C10.4557 12.0268 10.1485 12.6066 9.5341 13.0607C8.91949 13.5148 8.06285 13.787 6.96417 13.8773C5.59339 13.9954 4.56874 14.2788 3.89021 14.7274C3.21168 15.1761 2.87242 15.79 2.87242 16.5691C2.87242 17.2843 3.14433 17.8457 3.68817 18.2534C4.23182 18.6611 5.04748 18.9219 6.13515 19.0359L6.11619 19.8692ZM12.8808 19.9816L9.93304 17.0336L20.0246 6.96915C20.2495 6.75808 20.4992 6.65706 20.7737 6.66608C21.048 6.67511 21.2976 6.77613 21.5225 6.96915L22.9517 8.3921C23.1767 8.61708 23.2892 8.87464 23.2892 9.16479C23.2892 9.45512 23.1767 9.70583 22.9517 9.9169L12.8808 19.9816ZM9.94956 20.5837C9.76756 20.6281 9.60786 20.5816 9.47046 20.4442C9.33287 20.3066 9.28638 20.1468 9.33098 19.9648L9.93304 17.0336L12.8808 19.9816L9.94956 20.5837Z" fill="#001331"/>
</g>
</svg>
