<svg width="16" height="21" viewBox="0 0 16 21" fill="none" xmlns="http://www.w3.org/2000/svg">
<path fill-rule="evenodd" clip-rule="evenodd" d="M8.26675 0.999512L15.5335 5.22398V8.43737C15.5335 8.61574 15.3889 8.76034 15.2105 8.76034C15.0322 8.76034 14.8876 8.61574 14.8876 8.43737V5.97113L8.26675 9.82012L1.64593 5.97113V11.8695C1.64593 12.0479 1.50134 12.1925 1.32297 12.1925C1.1446 12.1925 1 12.0479 1 11.8695V5.22398L8.26675 0.999512ZM1.96557 5.40981L3.05891 6.04541L4.15225 5.40981L3.05891 4.77422L1.96557 5.40981ZM3.70152 4.40064L4.79486 5.03624L5.8882 4.40064L4.79486 3.76504L3.70152 4.40064ZM5.43746 3.39147L6.5308 4.02707L7.62414 3.39147L6.5308 2.75585L5.43746 3.39147ZM7.17341 2.38227L8.26675 3.01788L9.36009 2.38227L8.26675 1.74667L7.17341 2.38227ZM10.0027 2.75585L8.90936 3.39147L10.0027 4.02707L11.096 3.39147L10.0027 2.75585ZM11.7386 3.76504L10.6453 4.40064L11.7386 5.03624L12.832 4.40064L11.7386 3.76504ZM13.4746 4.77422L12.3812 5.40981L13.4746 6.04541L14.5679 5.40981L13.4746 4.77422ZM12.832 6.41899L11.7386 5.78339L10.6453 6.41899L11.7386 7.05459L12.832 6.41899ZM11.096 7.42819L10.0027 6.79256L8.90936 7.42819L10.0027 8.06379L11.096 7.42819ZM9.36009 8.43737L8.26675 7.80177L7.17341 8.43737L8.26675 9.07297L9.36009 8.43737ZM6.5308 8.06379L7.62414 7.42819L6.5308 6.79256L5.43746 7.42819L6.5308 8.06379ZM4.79486 7.05459L5.8882 6.41899L4.79486 5.78339L3.70152 6.41899L4.79486 7.05459ZM5.43746 5.40981L6.5308 6.04541L7.62414 5.40981L6.5308 4.77422L5.43746 5.40981ZM7.17341 4.40064L8.26675 5.03624L9.36009 4.40064L8.26675 3.76504L7.17341 4.40064ZM10.0027 4.77422L8.90936 5.40981L10.0027 6.04541L11.096 5.40981L10.0027 4.77422ZM9.36009 6.41899L8.26675 5.78339L7.17341 6.41899L8.26675 7.05459L9.36009 6.41899ZM15.2105 9.77022C15.3889 9.77022 15.5335 9.91481 15.5335 10.0932V15.9313L8.26675 20.1558L1 15.9313V13.3229C1 13.1445 1.1446 12.9999 1.32297 12.9999C1.50134 12.9999 1.64593 13.1445 1.64593 13.3229V15.5597L8.26675 19.4086L14.8876 15.5597V10.0932C14.8876 9.91481 15.0322 9.77022 15.2105 9.77022Z" fill="#001331" stroke="#001331" stroke-width="0.3"/>
<path fill-rule="evenodd" clip-rule="evenodd" d="M8.26685 11.6548L10.1276 12.7623L11.335 13.4809V13.0398H11.981V14.372H10.5276V13.752L8.58982 12.5987V15.1265L8.8459 14.8704L9.30264 15.3272L8.26685 16.363L7.23106 15.3272L7.6878 14.8704L7.94388 15.1265V12.5987L6.04981 13.726H6.16757V14.372H4.55273V13.0398H5.19867V13.4809L8.26685 11.6548Z" fill="#001331" stroke="#001331" stroke-width="0.3"/>
</svg>
