<svg width="33" height="31" viewBox="0 0 33 31" fill="none" xmlns="http://www.w3.org/2000/svg">
<path d="M16.5 19.4808L21.5438 14.6058H11.4463L16.5 19.4808ZM16.5057 30.5C14.3621 30.5 12.3494 30.1064 10.4676 29.3192C8.58575 28.5319 6.93746 27.4567 5.52272 26.0933C4.10797 24.73 2.99227 23.1415 2.17561 21.3279C1.35867 19.5143 0.950195 17.5735 0.950195 15.5054C0.950195 13.4312 1.35823 11.4811 2.17431 9.655C2.99039 7.82917 4.10509 6.24083 5.5184 4.89C6.9317 3.53917 8.57841 2.46986 10.4585 1.68208C12.3386 0.894028 14.3506 0.5 16.4944 0.5C18.6446 0.5 20.6663 0.893612 22.5593 1.68083C24.4521 2.46806 26.0986 3.53639 27.499 4.88583C28.8993 6.23528 30.0078 7.82222 30.8245 9.64667C31.6414 11.4708 32.0499 13.4201 32.0499 15.4946C32.0499 17.5624 31.6419 19.5039 30.8258 21.3192C30.0097 23.1344 28.9022 24.7244 27.5033 26.0892C26.1044 27.4539 24.4593 28.5301 22.5679 29.3179C20.6769 30.106 18.6561 30.5 16.5057 30.5ZM16.5 29.2179C20.456 29.2179 23.8152 27.884 26.5776 25.2162C29.3398 22.5485 30.7208 19.3097 30.7208 15.5C30.7208 11.6839 29.3398 8.44347 26.5776 5.77875C23.8152 3.11431 20.456 1.78208 16.5 1.78208C12.5507 1.78208 9.1932 3.11431 6.42763 5.77875C3.66206 8.44347 2.27928 11.6839 2.27928 15.5C2.27928 19.3097 3.66206 22.5485 6.42763 25.2162C9.1932 27.884 12.5507 29.2179 16.5 29.2179Z" fill="#235AB0"/>
</svg>
