<svg width="32" height="30" viewBox="0 0 32 30" fill="none" xmlns="http://www.w3.org/2000/svg">
<path d="M15.5499 18.9808L20.5936 14.1058H10.4962L15.5499 18.9808ZM15.5555 30C13.4119 30 11.3992 29.6064 9.51737 28.8192C7.63555 28.0319 5.98727 26.9567 4.57252 25.5933C3.15777 24.23 2.04207 22.6415 1.22541 20.8279C0.408471 19.0143 0 17.0735 0 15.0054C0 12.9312 0.408039 10.9811 1.22412 9.155C2.0402 7.32917 3.15489 5.74083 4.5682 4.39C5.98151 3.03917 7.62821 1.96986 9.5083 1.18208C11.3884 0.394028 13.4004 0 15.5442 0C17.6944 0 19.7161 0.393612 21.6091 1.18083C23.5019 1.96806 25.1484 3.03639 26.5488 4.38583C27.9491 5.73528 29.0576 7.32222 29.8743 9.14667C30.6912 10.9708 31.0997 12.9201 31.0997 14.9946C31.0997 17.0624 30.6917 19.0039 29.8756 20.8192C29.0595 22.6344 27.952 24.2244 26.5531 25.5892C25.1542 26.9539 23.5091 28.0301 21.6178 28.8179C19.7267 29.606 17.706 30 15.5555 30ZM15.5499 28.7179C19.5059 28.7179 22.8651 27.384 25.6275 24.7162C28.3896 22.0485 29.7706 18.8097 29.7706 15C29.7706 11.1839 28.3896 7.94347 25.6275 5.27875C22.8651 2.61431 19.5059 1.28208 15.5499 1.28208C11.6005 1.28208 8.24301 2.61431 5.47744 5.27875C2.71187 7.94347 1.32908 11.1839 1.32908 15C1.32908 18.8097 2.71187 22.0485 5.47744 24.7162C8.24301 27.384 11.6005 28.7179 15.5499 28.7179Z" fill="#525E86"/>
</svg>
