<svg width="44" height="44" viewBox="0 0 44 44" fill="none" xmlns="http://www.w3.org/2000/svg">
<path d="M28.9045 5.06594C28.3701 5.06594 27.9193 4.88147 27.5524 4.51252C27.1851 4.14358 27.0014 3.69186 27.0014 3.15738C27.0014 2.62329 27.1859 2.17258 27.5548 1.80525C27.9238 1.43832 28.3753 1.25486 28.9094 1.25486C29.4439 1.25486 29.8946 1.43933 30.2615 1.80827C30.6288 2.17721 30.8125 2.62873 30.8125 3.16281C30.8125 3.6973 30.628 4.14801 30.2591 4.51494C29.8901 4.88227 29.4386 5.06594 28.9045 5.06594ZM28.765 42.2451C28.2309 42.2451 27.7802 42.0607 27.4129 41.6917C27.0459 41.3228 26.8625 40.8713 26.8625 40.3372C26.8625 39.8027 27.0467 39.352 27.4153 38.9851C27.7842 38.6177 28.2359 38.4341 28.7704 38.4341C29.3045 38.4341 29.7552 38.6185 30.1225 38.9875C30.4895 39.3564 30.6729 39.8081 30.6729 40.3426C30.6729 40.8767 30.4885 41.3274 30.1195 41.6948C29.751 42.0617 29.2995 42.2451 28.765 42.2451ZM38.4316 12.9666C37.8976 12.9666 37.4469 12.7822 37.0795 12.4132C36.7126 12.0443 36.5291 11.5926 36.5291 11.0581C36.5291 10.524 36.7134 10.0733 37.0819 9.70594C37.4509 9.33901 37.9026 9.15554 38.4371 9.15554C38.9712 9.15554 39.4219 9.34002 39.7892 9.70896C40.1561 10.0779 40.3396 10.5294 40.3396 11.0635C40.3396 11.5976 40.1551 12.0483 39.7862 12.4156C39.4176 12.783 38.9661 12.9666 38.4316 12.9666ZM38.2921 34.484C37.758 34.484 37.3073 34.2995 36.94 33.9306C36.573 33.5617 36.3896 33.1101 36.3896 32.5761C36.3896 32.0416 36.574 31.5909 36.943 31.2239C37.3119 30.8566 37.7634 30.6729 38.2975 30.6729C38.8316 30.6729 39.2823 30.8574 39.6497 31.2264C40.0166 31.5953 40.2 32.0468 40.2 32.5809C40.2 33.1154 40.0158 33.5661 39.6472 33.933C39.2783 34.3004 38.8266 34.484 38.2921 34.484ZM41.592 23.6555C41.0576 23.6555 40.6068 23.4711 40.2399 23.1021C39.8726 22.7332 39.6889 22.2817 39.6889 21.7476C39.6889 21.2131 39.8734 20.7624 40.2423 20.3955C40.6113 20.0281 41.063 19.8445 41.5975 19.8445C42.1316 19.8445 42.5821 20.0289 42.949 20.3979C43.3163 20.7668 43.5 21.2183 43.5 21.7524C43.5 22.2869 43.3155 22.7376 42.9466 23.1045C42.5776 23.4719 42.1261 23.6555 41.592 23.6555ZM21.75 43.5C18.7477 43.5 15.9226 42.9293 13.2748 41.7878C10.6273 40.6463 8.32421 39.0972 6.3655 37.1405C4.40679 35.1838 2.8563 32.8828 1.71402 30.2373C0.57134 27.5923 0 24.7658 0 21.7579C0 18.7503 0.570938 15.9226 1.71281 13.2747C2.85469 10.6273 4.40438 8.32421 6.36188 6.3655C8.31938 4.40679 10.6213 2.8563 13.2675 1.71402C15.9138 0.57134 18.7413 0 21.75 0V2.41667C16.3528 2.41667 11.7813 4.28958 8.03542 8.03542C4.28958 11.7813 2.41667 16.3528 2.41667 21.75C2.41667 27.1472 4.28958 31.7188 8.03542 35.4646C11.7813 39.2104 16.3528 41.0833 21.75 41.0833V43.5ZM21.75 25.375C20.7306 25.375 19.8716 25.0256 19.1732 24.3268C18.4744 23.6284 18.125 22.7694 18.125 21.75C18.125 21.4556 18.1506 21.1821 18.2017 20.9295C18.2529 20.677 18.3498 20.4345 18.4923 20.2021L13.8028 15.4667L15.4667 13.8028L20.2021 18.4923C20.3943 18.39 20.9102 18.2676 21.75 18.125C22.7694 18.125 23.6284 18.4744 24.3268 19.1732C25.0256 19.8716 25.375 20.7306 25.375 21.75C25.375 22.7694 25.0256 23.6284 24.3268 24.3268C23.6284 25.0256 22.7694 25.375 21.75 25.375Z" fill="#2359B0"/>
</svg>
