<svg width="22" height="20" viewBox="0 0 22 20" fill="none" xmlns="http://www.w3.org/2000/svg">
<path d="M6.94551 19.451L0.56404 13.2262C0.376027 13.0428 0.23522 12.8395 0.14162 12.6164C0.0472067 12.3941 0 12.1615 0 11.9185C0 11.6907 0.0472067 11.4652 0.14162 11.2421C0.23522 11.0198 0.376027 10.817 0.56404 10.6336L7.34839 4.02168L4.30843 1.14684C4.16926 1.01108 4.09845 0.856264 4.096 0.682393C4.09356 0.507727 4.16193 0.350528 4.30111 0.210796C4.44029 0.0710635 4.60144 0.000800587 4.78457 6.6531e-06C4.9677 -0.000787281 5.1313 0.0694757 5.27536 0.210796L15.9604 10.655C16.1476 10.8392 16.2872 11.0428 16.3791 11.2659C16.4711 11.4882 16.5171 11.7133 16.5171 11.9412C16.5171 12.1841 16.4711 12.4167 16.3791 12.639C16.2872 12.8613 16.1476 13.0646 15.9604 13.2488L9.60211 19.451C9.41491 19.6336 9.20696 19.7706 8.97825 19.8619C8.74954 19.954 8.51879 20 8.28602 20C8.03696 20 7.79808 19.9543 7.56937 19.863C7.34147 19.771 7.13352 19.6344 6.94551 19.451ZM8.2616 4.91247L1.58957 11.4207C1.49597 11.5128 1.4333 11.6045 1.40155 11.6958C1.36981 11.7871 1.35435 11.8785 1.35516 11.9698H15.1693C15.1693 11.8785 15.1534 11.7871 15.1216 11.6958C15.0907 11.6045 15.0285 11.5132 14.9348 11.4219L8.2616 4.91247ZM19.9245 20C19.3491 20 18.8697 19.8043 18.4863 19.4129C18.1022 19.0207 17.9101 18.5415 17.9101 17.9755C17.9101 17.5467 18.0045 17.1323 18.1933 16.7322C18.3822 16.332 18.6259 15.9573 18.9246 15.608L19.3642 15.0768C19.5155 14.9037 19.7036 14.8164 19.9282 14.8148C20.1528 14.8116 20.3412 14.8966 20.4935 15.0697L20.9855 15.608C21.2801 15.9573 21.5226 16.332 21.7131 16.7322C21.9044 17.1323 22 17.5467 22 17.9755C22 18.5423 21.7982 19.0215 21.3945 19.4129C20.9908 19.8043 20.5016 20 19.9245 20Z" fill="#525E86"/>
</svg>
