<svg width="35" height="33" viewBox="0 0 35 33" fill="none" xmlns="http://www.w3.org/2000/svg">
<path d="M3.35543 32.2693C2.58109 32.2693 1.92609 32.0013 1.39043 31.4653C0.854426 30.9296 0.586426 30.2746 0.586426 29.5003V3.03829C0.586426 2.26395 0.854426 1.60895 1.39043 1.07329C1.92609 0.537288 2.58109 0.269287 3.35543 0.269287H29.8174C30.5918 0.269287 31.2468 0.537288 31.7824 1.07329C32.3184 1.60895 32.5864 2.26395 32.5864 3.03829V13.9653C32.3504 13.8423 32.1043 13.7166 31.8479 13.5883C31.5916 13.4603 31.3249 13.3335 31.0479 13.2078V3.03829C31.0479 2.67962 30.9326 2.38479 30.7019 2.15379C30.4709 1.92312 30.1761 1.80779 29.8174 1.80779H3.35543C2.99676 1.80779 2.70193 1.92312 2.47093 2.15379C2.24026 2.38479 2.12493 2.67962 2.12493 3.03829V22.0463H10.5864C11.0404 23.013 11.6436 23.8398 12.3959 24.5268C13.1486 25.2141 14.0378 25.6783 15.0634 25.9193C15.0994 26.222 15.1533 26.5015 15.2249 26.7578C15.2966 27.0141 15.3658 27.277 15.4324 27.5463C14.2504 27.372 13.1671 26.9431 12.1824 26.2598C11.1978 25.5765 10.4324 24.6848 9.88643 23.5848H2.12493V29.5003C2.12493 29.859 2.24026 30.1538 2.47093 30.3848C2.70193 30.6155 2.99676 30.7308 3.35543 30.7308H16.9019C17.1019 31.0078 17.2948 31.2681 17.4804 31.5118C17.6664 31.7551 17.8748 32.0076 18.1054 32.2693H3.35543ZM3.35543 30.7308H2.12493H16.9019H3.35543ZM26.5519 32.7308L26.4939 31.2923C25.5993 31.0846 24.8353 30.802 24.2019 30.4443C23.5686 30.0866 22.9929 29.6013 22.4749 28.9883L21.1824 29.6808L20.2404 28.4038L21.4864 27.4808C21.1658 26.6681 21.0054 25.8675 21.0054 25.0788C21.0054 24.2905 21.1658 23.477 21.4864 22.6383L20.2404 21.6768L21.1824 20.3503L22.4749 21.0808C22.9673 20.5271 23.5429 20.0586 24.2019 19.6753C24.8609 19.292 25.6249 18.9963 26.4939 18.7883L26.5519 17.3383H28.0904L28.1594 18.7883C29.0031 18.9706 29.7544 19.2535 30.4134 19.6368C31.0724 20.0201 31.6609 20.5015 32.1789 21.0808L33.4709 20.3503L34.4134 21.6768L33.1674 22.6383C33.4878 23.477 33.6416 24.297 33.6289 25.0983C33.6159 25.8996 33.4493 26.6938 33.1289 27.4808L34.4134 28.4038L33.4709 29.6808L32.1789 28.9883C31.6609 29.5756 31.0853 30.0546 30.4519 30.4253C29.8186 30.7956 29.0544 31.0846 28.1594 31.2923L28.0904 32.7308H26.5519ZM27.3209 29.8268C28.6596 29.8268 29.7929 29.3628 30.7209 28.4348C31.6493 27.5065 32.1134 26.3731 32.1134 25.0348C32.1134 23.6961 31.6493 22.5563 30.7209 21.6153C29.7929 20.6743 28.6596 20.2038 27.3209 20.2038C25.9569 20.2038 24.8108 20.6743 23.8824 21.6153C22.9544 22.5563 22.4904 23.6961 22.4904 25.0348C22.4904 26.3731 22.9544 27.5065 23.8824 28.4348C24.8108 29.3628 25.9569 29.8268 27.3209 29.8268Z" fill="#DDE9FC"/>
</svg>
