<svg width="22" height="22" viewBox="0 0 22 22" fill="none" xmlns="http://www.w3.org/2000/svg">
<path d="M6.41927 1.83301H15.5859V6.41634H17.4193V11.9163H15.1276L11.9193 15.583H10.0859L6.8776 11.9163H4.58594V6.41634H6.41927V1.83301ZM9.16927 20.1663H1.83594V18.333H9.16927C9.41239 18.333 9.64554 18.2364 9.81745 18.0645C9.98936 17.8926 10.0859 17.6595 10.0859 17.4163V16.4997H11.9193V17.4163C11.9193 18.1457 11.6295 18.8452 11.1138 19.3609C10.5981 19.8766 9.89862 20.1663 9.16927 20.1663ZM6.41927 8.24967V10.083H7.79427L11.0026 13.7497L14.2109 10.083H15.5859V8.24967H13.7526V3.66634H8.2526V8.24967H6.41927Z" fill="#525E86"/>
</svg>
