<svg width="17" height="17" viewBox="0 0 17 17" fill="none" xmlns="http://www.w3.org/2000/svg">
<path d="M8.02778 12.75H8.97222V7.55556H8.02778V12.75ZM8.5 6.21161C8.66465 6.21161 8.80269 6.15589 8.91414 6.04444C9.02558 5.933 9.08131 5.79495 9.08131 5.63031C9.08131 5.46566 9.02558 5.32761 8.91414 5.21617C8.80269 5.10488 8.66465 5.04924 8.5 5.04924C8.33535 5.04924 8.1973 5.10488 8.08586 5.21617C7.97442 5.32761 7.91869 5.46566 7.91869 5.63031C7.91869 5.79495 7.97442 5.933 8.08586 6.04444C8.1973 6.15589 8.33535 6.21161 8.5 6.21161ZM8.50307 17C7.32771 17 6.22263 16.777 5.18783 16.3309C4.15319 15.8848 3.25314 15.2794 2.48767 14.5147C1.72219 13.75 1.11625 12.8507 0.669847 11.8169C0.223282 10.7832 0 9.67859 0 8.50307C0 7.32771 0.223046 6.22263 0.669139 5.18783C1.11523 4.15319 1.72062 3.25314 2.48531 2.48767C3.24999 1.72219 4.14926 1.11625 5.18311 0.669847C6.21681 0.223282 7.32141 0 8.49693 0C9.67229 0 10.7774 0.223047 11.8122 0.66914C12.8468 1.11523 13.7469 1.72062 14.5123 2.48531C15.2778 3.24999 15.8837 4.14926 16.3302 5.18311C16.7767 6.21681 17 7.32141 17 8.49693C17 9.67229 16.777 10.7774 16.3309 11.8122C15.8848 12.8468 15.2794 13.7469 14.5147 14.5123C13.75 15.2778 12.8507 15.8837 11.8169 16.3302C10.7832 16.7767 9.67859 17 8.50307 17ZM8.5 16.0556C10.6093 16.0556 12.3958 15.3236 13.8597 13.8597C15.3236 12.3958 16.0556 10.6093 16.0556 8.5C16.0556 6.39074 15.3236 4.60417 13.8597 3.14028C12.3958 1.67639 10.6093 0.944444 8.5 0.944444C6.39074 0.944444 4.60417 1.67639 3.14028 3.14028C1.67639 4.60417 0.944444 6.39074 0.944444 8.5C0.944444 10.6093 1.67639 12.3958 3.14028 13.8597C4.60417 15.3236 6.39074 16.0556 8.5 16.0556Z" fill="#0066FF"/>
</svg>
