<svg width="43" height="29" viewBox="0 0 43 29" fill="none" xmlns="http://www.w3.org/2000/svg">
<path d="M8.50428 28.6095C7.07828 28.6095 5.86078 28.1033 4.85178 27.091C3.84278 26.0783 3.33828 24.8487 3.33828 23.402H0.884277V3.1595C0.884277 2.39117 1.15378 1.7375 1.69278 1.1985C2.23144 0.659835 2.88511 0.390503 3.65378 0.390503H30.5653V7.779H34.8153L42.1153 17.5595V23.402H39.1038C39.1038 24.8487 38.5971 26.0783 37.5838 27.091C36.5704 28.1033 35.3401 28.6095 33.8928 28.6095C32.4561 28.6095 31.2359 28.1033 30.2323 27.091C29.2286 26.0783 28.7268 24.8487 28.7268 23.402H13.7153C13.7153 24.856 13.2033 26.0875 12.1793 27.0965C11.1553 28.1052 9.93028 28.6095 8.50428 28.6095ZM8.52678 27.0715C9.54478 27.0715 10.4076 26.7175 11.1153 26.0095C11.8229 25.3018 12.1768 24.4392 12.1768 23.4215C12.1768 22.4035 11.8229 21.5407 11.1153 20.833C10.4076 20.1253 9.54478 19.7715 8.52678 19.7715C7.50878 19.7715 6.64594 20.1253 5.93828 20.833C5.23061 21.5407 4.87678 22.4035 4.87678 23.4215C4.87678 24.4392 5.23061 25.3018 5.93828 26.0095C6.64594 26.7175 7.50878 27.0715 8.52678 27.0715ZM2.42278 21.8635H3.48428C3.76894 20.8608 4.38378 20.0032 5.32878 19.2905C6.27378 18.5778 7.33194 18.2215 8.50328 18.2215C9.62361 18.2215 10.6684 18.5733 11.6378 19.277C12.6074 19.981 13.2344 20.8432 13.5188 21.8635H29.0268V1.929H3.65378C3.34611 1.929 3.06394 2.05717 2.80728 2.3135C2.55094 2.56984 2.42278 2.85184 2.42278 3.1595V21.8635ZM33.9153 27.0715C34.9333 27.0715 35.7961 26.7175 36.5038 26.0095C37.2114 25.3018 37.5653 24.4392 37.5653 23.4215C37.5653 22.4035 37.2114 21.5407 36.5038 20.833C35.7961 20.1253 34.9333 19.7715 33.9153 19.7715C32.8973 19.7715 32.0344 20.1253 31.3268 20.833C30.6191 21.5407 30.2653 22.4035 30.2653 23.4215C30.2653 24.4392 30.6191 25.3018 31.3268 26.0095C32.0344 26.7175 32.8973 27.0715 33.9153 27.0715ZM30.5653 17.7175H40.3653L33.9688 9.3175H30.5653V17.7175Z" fill="#DDE9FC"/>
</svg>
