<svg width="17" height="23" viewBox="0 0 17 23" fill="none" xmlns="http://www.w3.org/2000/svg">
<path d="M0.374023 19.4668V18.2815H2.28889V8.8903C2.28889 7.34169 2.77891 5.97968 3.75896 4.80425C4.73921 3.62882 5.98151 2.89679 7.48586 2.60817V1.9607C7.48586 1.63138 7.60084 1.35155 7.83079 1.1212C8.06074 0.890661 8.33998 0.775391 8.6685 0.775391C8.99703 0.775391 9.27716 0.890661 9.50889 1.1212C9.74061 1.35155 9.85648 1.63138 9.85648 1.9607V2.60817C11.3608 2.89679 12.6031 3.62882 13.5834 4.80425C14.5634 5.97968 15.0535 7.34169 15.0535 8.8903V18.2815H16.9683V19.4668H0.374023ZM8.66702 22.5667C8.13936 22.5667 7.68905 22.3792 7.31607 22.0042C6.9429 21.6293 6.75631 21.1786 6.75631 20.6521H10.586C10.586 21.1825 10.3981 21.6342 10.0221 22.0072C9.64638 22.3802 9.19468 22.5667 8.66702 22.5667ZM3.47419 18.2815H13.8682V8.8903C13.8682 7.44956 13.3621 6.22316 12.3501 5.21111C11.338 4.19905 10.1117 3.69302 8.67117 3.69302C7.23063 3.69302 6.00433 4.19905 4.99228 5.21111C3.98022 6.22316 3.47419 7.44956 3.47419 8.8903V18.2815Z" fill="#001047"/>
</svg>
