<svg width="17" height="17" viewBox="0 0 17 17" fill="none" xmlns="http://www.w3.org/2000/svg">
<g clip-path="url(#clip0_822_8162)">
<path d="M15.5833 1.41667V15.5833H1.41667V1.41667H15.5833ZM15.5833 0H1.41667C1.04094 0 0.680609 0.149256 0.414932 0.414932C0.149256 0.680609 0 1.04094 0 1.41667L0 15.5833C0 15.9591 0.149256 16.3194 0.414932 16.5851C0.680609 16.8507 1.04094 17 1.41667 17H15.5833C15.9591 17 16.3194 16.8507 16.5851 16.5851C16.8507 16.3194 17 15.9591 17 15.5833V1.41667C17 1.04094 16.8507 0.680609 16.5851 0.414932C16.3194 0.149256 15.9591 0 15.5833 0Z" fill="#525E86"/>
<path d="M12.75 12.0417H4.25V13.4584H12.75V12.0417ZM9.20833 13.4584H7.79167V15.5834H9.20833V13.4584Z" fill="#525E86"/>
<path fill-rule="evenodd" clip-rule="evenodd" d="M6.60402 5.02105L6.56506 4.95801H1.41406V3.54134H6.56081C6.68527 3.32578 6.86432 3.14681 7.07995 3.02246C7.29557 2.89811 7.54015 2.83277 7.78906 2.83301H9.20573C9.45428 2.83314 9.69842 2.89866 9.91364 3.02299C10.1289 3.14732 10.3076 3.32609 10.4319 3.54134H16.2891V4.95801H10.4297C10.2444 5.27499 9.94318 5.50761 9.58965 5.60684L8.4974 7.79134L7.40515 5.60684C7.07621 5.51456 6.79169 5.30652 6.60402 5.02105ZM8.4974 4.95801H7.78623H9.20856H8.4974ZM9.20573 4.24968C9.20573 4.43754 9.1311 4.6177 8.99826 4.75054C8.86542 4.88338 8.68526 4.95801 8.4974 4.95801C8.30953 4.95801 8.12937 4.88338 7.99653 4.75054C7.86369 4.6177 7.78906 4.43754 7.78906 4.24968C7.78906 4.06181 7.86369 3.88165 7.99653 3.74881C8.12937 3.61597 8.30953 3.54134 8.4974 3.54134C8.68526 3.54134 8.86542 3.61597 8.99826 3.74881C9.1311 3.88165 9.20573 4.06181 9.20573 4.24968Z" fill="#525E86"/>
</g>
<defs>
<clipPath id="clip0_822_8162">
<rect width="17" height="17" fill="white"/>
</clipPath>
</defs>
</svg>
