<svg width="49" height="49" viewBox="0 0 49 49" fill="none" xmlns="http://www.w3.org/2000/svg">
<path d="M6.5 20.5V16.5C6.5 15.4391 6.92143 14.4217 7.67157 13.6716C8.42172 12.9214 9.43913 12.5 10.5 12.5H14.5M6.5 20.5C9.166 20.5 14.5 18.9 14.5 12.5M6.5 20.5V28.5M14.5 12.5H34.5M6.5 28.5V32.5C6.5 33.5609 6.92143 34.5783 7.67157 35.3284C8.42172 36.0786 9.43913 36.5 10.5 36.5H14.5M6.5 28.5C9.166 28.5 14.5 30.1 14.5 36.5M42.5 20.5V16.5C42.5 15.4391 42.0786 14.4217 41.3284 13.6716C40.5783 12.9214 39.5609 12.5 38.5 12.5H34.5M42.5 20.5C39.834 20.5 34.5 18.9 34.5 12.5M42.5 20.5V24.5M14.5 36.5H22.5" stroke="white" stroke-width="2" stroke-linecap="round" stroke-linejoin="round"/>
<path d="M24.5 28.5C26.7091 28.5 28.5 26.7091 28.5 24.5C28.5 22.2909 26.7091 20.5 24.5 20.5C22.2909 20.5 20.5 22.2909 20.5 24.5C20.5 26.7091 22.2909 28.5 24.5 28.5Z" stroke="white" stroke-width="2" stroke-linecap="round" stroke-linejoin="round"/>
<path d="M36.5 30.5V36.5M36.5 36.5V42.5M36.5 36.5H30.5M36.5 36.5H42.5" stroke="white" stroke-width="2" stroke-linecap="round" stroke-linejoin="round"/>
</svg>
