<svg width="18" height="18" viewBox="0 0 18 18" fill="none" xmlns="http://www.w3.org/2000/svg">
<path d="M16.2839 8.50058L9.08514 0.891875C9.01037 0.792888 8.96514 0.675832 8.94945 0.54071C8.93355 0.405805 8.97878 0.285575 9.08514 0.180017C9.19149 0.0600044 9.30508 1.1689e-06 9.4259 1.17946e-06C9.54671 1.19002e-06 9.6603 0.056392 9.76666 0.169177L17.5023 8.37214C17.5861 8.46105 17.6487 8.55719 17.69 8.66056C17.7313 8.76393 17.752 8.88011 17.752 9.0091C17.752 9.13831 17.7313 9.2535 17.69 9.35468C17.6487 9.45564 17.5861 9.55057 17.5023 9.63949L9.76666 17.8424C9.6762 17.9384 9.56819 17.9906 9.44263 17.9991C9.31706 18.0075 9.1979 17.9552 9.08513 17.8424C8.97877 17.7229 8.9256 17.6008 8.9256 17.4762C8.9256 17.3513 8.97877 17.241 9.08513 17.145L16.2839 9.51104L1.2284 9.51104C1.08755 9.51104 0.972932 9.46418 0.884539 9.37044C0.796149 9.27671 0.751952 9.15506 0.751952 9.00548C0.751952 8.85569 0.796149 8.73403 0.884539 8.64052C0.972932 8.54723 1.08755 8.50058 1.2284 8.50058L16.2839 8.50058Z" fill="#002E72"/>
</svg>
