<svg width="24" height="24" viewBox="0 0 24 24" fill="none" xmlns="http://www.w3.org/2000/svg">
<path d="M17.1551 16.3084C16.0444 16.3084 15.0951 15.958 14.3071 15.2574C13.5191 14.5567 13.0401 13.6377 12.8701 12.5004H6.68606C6.5754 12.9504 6.34073 13.332 5.98206 13.6454C5.6234 13.9587 5.18106 14.1154 4.65506 14.1154C4.0704 14.1154 3.57173 13.909 3.15906 13.4964C2.7464 13.0837 2.53973 12.585 2.53906 12.0004C2.5384 11.4157 2.74506 10.917 3.15906 10.5044C3.57306 10.0917 4.07173 9.88503 4.65506 9.88436C5.1804 9.88436 5.62273 10.041 5.98206 10.3544C6.3414 10.6677 6.57606 11.0497 6.68606 11.5004H12.8701C13.0394 10.363 13.5184 9.44403 14.3071 8.74336C15.0957 8.04269 16.0451 7.69269 17.1551 7.69336C18.3464 7.69336 19.3621 8.11969 20.2021 8.97236C21.0421 9.82569 21.4621 10.848 21.4621 12.0394C21.4621 13.204 21.0421 14.2067 20.2021 15.0474C19.3621 15.888 18.3464 16.308 17.1551 16.3074M17.1551 15.3074C18.0651 15.3074 18.8441 14.984 19.4921 14.3374C20.1387 13.6894 20.4621 12.9104 20.4621 12.0004C20.4621 11.0904 20.1387 10.3117 19.4921 9.66436C18.8454 9.01703 18.0664 8.69303 17.1551 8.69236C16.2437 8.69169 15.4647 9.01536 14.8181 9.66336C14.1714 10.3114 13.8481 11.0904 13.8481 12.0004C13.8481 12.9104 14.1714 13.6894 14.8181 14.3374C15.4647 14.9854 16.2437 15.3087 17.1551 15.3074Z" fill="#525E86"/>
</svg>
