<svg width="33" height="33" viewBox="0 0 33 33" fill="none" xmlns="http://www.w3.org/2000/svg">
<path d="M15.5937 25.1171V3.52687L9.65545 9.41973L8.34546 8.15454L16.5 0L24.6545 8.15454L23.3446 9.41973L17.4063 3.52687V25.1171H15.5937ZM3.26346 33C2.35793 33 1.58754 32.6826 0.952286 32.0477C0.317429 31.4125 0 30.6421 0 29.7365V23.3946H1.81323V29.7365C1.81323 30.0991 1.96429 30.4315 2.26639 30.7336C2.5685 31.0357 2.90086 31.1868 3.26346 31.1868H29.7365C30.0991 31.1868 30.4315 31.0357 30.7336 30.7336C31.0357 30.4315 31.1868 30.0991 31.1868 29.7365V23.3946H33V29.7365C33 30.6421 32.6826 31.4125 32.0477 32.0477C31.4125 32.6826 30.6421 33 29.7365 33H3.26346Z" fill="red"/>
</svg>
