<svg width="20" height="23" viewBox="0 0 20 23" fill="none" xmlns="http://www.w3.org/2000/svg">
<path fill-rule="evenodd" clip-rule="evenodd" d="M9.66583 0.648763L0.310542 6.64547C0.0949407 6.79774 0.0370417 6.97096 0.0332031 7.12854V16.0897C0.0332031 16.2867 0.138125 16.4699 0.310542 16.5728L9.66583 22.5691C9.89135 22.6895 10.1207 22.6692 10.273 22.566L19.6238 16.5728C19.7085 16.5222 19.7785 16.4512 19.8271 16.3666C19.8756 16.2821 19.9011 16.1867 19.9011 16.0897V7.12854C19.8992 6.88966 19.7956 6.76366 19.6148 6.63953L10.2685 0.648763C10.0459 0.524633 9.8712 0.583728 9.66583 0.648763ZM9.96716 1.79314L18.129 7.07914L9.96205 12.4589L1.72378 7.12823L9.96716 1.79314ZM1.18958 8.13503L9.38882 13.4429V21.0799L1.19022 15.772L1.18958 8.13503ZM18.7448 8.13503V15.7717L10.5455 21.0796V13.4423L18.7448 8.13503Z" fill="white"/>
</svg>
