<svg width="24" height="24" viewBox="0 0 24 24" fill="none" xmlns="http://www.w3.org/2000/svg">
<path d="M2.625 4.62451C2.625 3.51994 3.52043 2.62451 4.625 2.62451H19.375C20.4796 2.62451 21.375 3.51994 21.375 4.62451V19.3745C21.375 20.4791 20.4796 21.3745 19.375 21.3745H4.625C3.52043 21.3745 2.625 20.4791 2.625 19.3745V4.62451Z" stroke="#2A2D2F" stroke-width="1.5" stroke-linecap="round" stroke-linejoin="round"/>
<path d="M2.625 10.7761L4.375 9.15942C5.40416 8.21012 6.70887 7.61318 8.10005 7.45511C9.49122 7.29704 10.8966 7.58604 12.1125 8.28025C13.3676 8.99775 14.8238 9.28252 16.2567 9.09067C17.6896 8.89881 19.0196 8.24098 20.0417 7.21859L21.375 5.88525M2.625 17.2978L4.375 15.6803C5.40426 14.7311 6.70901 14.1343 8.10018 13.9764C9.49136 13.8185 10.8967 14.1076 12.1125 14.8019C13.3673 15.5188 14.823 15.8032 16.2553 15.6114C17.6877 15.4195 19.0172 14.7621 20.0392 13.7403L21.3725 12.4069" stroke="#2A2D2F" stroke-width="1.5" stroke-linecap="round" stroke-linejoin="round"/>
<path d="M5.17354 2.62549C6.43252 3.84026 7.43336 5.29664 8.1161 6.90741C8.79884 8.51817 9.14943 10.2502 9.14688 11.9997C9.14933 13.7494 8.79852 15.4816 8.11549 17.0925C7.43246 18.7035 6.43126 20.1599 5.17188 21.3747M12.5102 2.62549C13.7674 3.84186 14.767 5.29866 15.4498 6.90922C16.1325 8.51978 16.4843 10.2512 16.4843 12.0005C16.4843 13.7498 16.1325 15.4812 15.4498 17.0918C14.767 18.7023 13.7674 20.1591 12.5102 21.3755" stroke="#2A2D2F" stroke-width="1.5" stroke-linecap="round" stroke-linejoin="round"/>
</svg>
